<mxfile host="65bd71144e">
    <diagram id="2KhIsbDiPvBkP_OM17Oy" name="Page-1">
        <mxGraphModel dx="4684" dy="1676" grid="0" gridSize="10" guides="1" tooltips="1" connect="1" arrows="1" fold="1" page="1" pageScale="1" pageWidth="850" pageHeight="1100" background="#ffffff" math="0" shadow="0">
            <root>
                <mxCell id="0"/>
                <mxCell id="1" parent="0"/>
                <mxCell id="167" value="&lt;font style=&quot;font-size: 18px;&quot;&gt;&lt;b style=&quot;&quot;&gt;Medical Record Management&lt;br&gt;&lt;br&gt;&lt;br&gt;&lt;br&gt;&lt;br&gt;&lt;br&gt;&lt;br&gt;&lt;br&gt;&lt;br&gt;&lt;br&gt;&lt;br&gt;&lt;br&gt;&lt;br&gt;&lt;br&gt;&lt;br&gt;&lt;br&gt;&lt;br&gt;&lt;br&gt;&lt;br&gt;&lt;br&gt;&lt;br&gt;&lt;br&gt;&lt;br&gt;&lt;br&gt;&lt;br&gt;&lt;br&gt;&lt;br&gt;&lt;br&gt;&lt;br&gt;&lt;/b&gt;&lt;/font&gt;" style="shape=folder;fontStyle=1;tabWidth=80;tabHeight=30;tabPosition=left;html=1;boundedLbl=1;strokeColor=#000000;fillColor=#faf5e3;fontColor=#000000;" vertex="1" parent="1">
                    <mxGeometry x="-804" y="359" width="840" height="761" as="geometry"/>
                </mxCell>
                <mxCell id="47" value="&lt;font style=&quot;font-size: 18px;&quot;&gt;Management Core&lt;br&gt;&lt;br&gt;&lt;br&gt;&lt;br&gt;&lt;br&gt;&lt;br&gt;&lt;br&gt;&lt;br&gt;&lt;br&gt;&lt;br&gt;&lt;br&gt;&lt;br&gt;&lt;br&gt;&lt;br&gt;&lt;br&gt;&lt;br&gt;&lt;/font&gt;" style="shape=folder;fontStyle=1;tabWidth=80;tabHeight=30;tabPosition=left;html=1;boundedLbl=1;strokeColor=#000000;fillColor=#faf5e3;fontColor=#000000;" parent="1" vertex="1">
                    <mxGeometry x="140" y="120" width="950" height="460" as="geometry"/>
                </mxCell>
                <mxCell id="61" value="" style="edgeStyle=none;html=1;fontSize=18;" parent="1" source="48" edge="1">
                    <mxGeometry relative="1" as="geometry">
                        <mxPoint x="326.1111111111111" y="150" as="targetPoint"/>
                    </mxGeometry>
                </mxCell>
                <mxCell id="48" value="&lt;font style=&quot;font-size: 16px;&quot;&gt;DoainModel&lt;br&gt;&lt;/font&gt;" style="shape=folder;fontStyle=1;spacingTop=10;tabWidth=40;tabHeight=14;tabPosition=left;html=1;fillColor=#F2DBC0;fontColor=#000000;strokeColor=#000000;" parent="1" vertex="1">
                    <mxGeometry x="890" y="390" width="140" height="70" as="geometry"/>
                </mxCell>
                <mxCell id="62" value="&lt;font style=&quot;font-size: 16px;&quot;&gt;DataModel&lt;br&gt;&lt;/font&gt;" style="shape=folder;fontStyle=1;spacingTop=10;tabWidth=40;tabHeight=14;tabPosition=left;html=1;fillColor=#F2DBC0;fontColor=#000000;strokeColor=#000000;" parent="1" vertex="1">
                    <mxGeometry x="890" y="260" width="140" height="70" as="geometry"/>
                </mxCell>
                <mxCell id="75" style="edgeStyle=none;html=1;exitX=0;exitY=0;exitDx=90;exitDy=14;exitPerimeter=0;entryX=0.646;entryY=1.038;entryDx=0;entryDy=0;entryPerimeter=0;dashed=1;strokeColor=#000000;fontSize=18;endArrow=open;endFill=0;" parent="1" source="63" target="66" edge="1">
                    <mxGeometry relative="1" as="geometry"/>
                </mxCell>
                <mxCell id="63" value="&lt;font style=&quot;font-size: 16px;&quot;&gt;DTO&lt;br&gt;&lt;/font&gt;" style="shape=folder;fontStyle=1;spacingTop=10;tabWidth=40;tabHeight=14;tabPosition=left;html=1;fillColor=#F2DBC0;fontColor=#000000;strokeColor=#000000;" parent="1" vertex="1">
                    <mxGeometry x="620" y="470" width="140" height="70" as="geometry"/>
                </mxCell>
                <mxCell id="76" style="edgeStyle=none;html=1;exitX=0;exitY=0;exitDx=140;exitDy=42;exitPerimeter=0;entryX=0;entryY=0;entryDx=0;entryDy=42;entryPerimeter=0;dashed=1;strokeColor=#000000;fontSize=18;endArrow=open;endFill=0;" parent="1" source="64" target="63" edge="1">
                    <mxGeometry relative="1" as="geometry"/>
                </mxCell>
                <mxCell id="77" style="edgeStyle=none;html=1;entryX=0.5;entryY=1;entryDx=0;entryDy=0;entryPerimeter=0;dashed=1;strokeColor=#000000;fontSize=18;endArrow=open;endFill=0;exitX=0;exitY=0;exitDx=90;exitDy=14;exitPerimeter=0;" parent="1" source="64" target="68" edge="1">
                    <mxGeometry relative="1" as="geometry"/>
                </mxCell>
                <mxCell id="64" value="&lt;font style=&quot;font-size: 16px;&quot;&gt;Service&lt;br&gt;&lt;/font&gt;" style="shape=folder;fontStyle=1;spacingTop=10;tabWidth=40;tabHeight=14;tabPosition=left;html=1;fillColor=#F2DBC0;fontColor=#000000;strokeColor=#000000;" parent="1" vertex="1">
                    <mxGeometry x="380" y="470" width="140" height="70" as="geometry"/>
                </mxCell>
                <mxCell id="78" style="edgeStyle=none;html=1;exitX=0;exitY=0;exitDx=140;exitDy=42;exitPerimeter=0;entryX=0;entryY=0;entryDx=0;entryDy=42;entryPerimeter=0;dashed=1;strokeColor=#000000;fontSize=18;endArrow=open;endFill=0;" parent="1" source="65" target="64" edge="1">
                    <mxGeometry relative="1" as="geometry"/>
                </mxCell>
                <mxCell id="169" style="edgeStyle=none;html=1;exitX=0;exitY=0;exitDx=0;exitDy=42;exitPerimeter=0;entryX=0.75;entryY=0;entryDx=0;entryDy=0;endArrow=open;endFill=0;strokeColor=#000000;dashed=1;" edge="1" parent="1" source="65" target="127">
                    <mxGeometry relative="1" as="geometry">
                        <Array as="points">
                            <mxPoint x="84" y="512"/>
                            <mxPoint x="84" y="313"/>
                            <mxPoint x="-46" y="313"/>
                            <mxPoint x="-276" y="313"/>
                        </Array>
                    </mxGeometry>
                </mxCell>
                <mxCell id="65" value="&lt;font style=&quot;font-size: 16px;&quot;&gt;Controller&lt;br&gt;&lt;/font&gt;" style="shape=folder;fontStyle=1;spacingTop=10;tabWidth=40;tabHeight=14;tabPosition=left;html=1;fillColor=#F2DBC0;fontColor=#000000;strokeColor=#000000;" parent="1" vertex="1">
                    <mxGeometry x="170" y="470" width="140" height="70" as="geometry"/>
                </mxCell>
                <mxCell id="73" style="edgeStyle=none;html=1;exitX=0;exitY=0;exitDx=140;exitDy=42;exitPerimeter=0;entryX=0;entryY=0;entryDx=0;entryDy=42;entryPerimeter=0;dashed=1;strokeColor=#000000;fontSize=18;endArrow=open;endFill=0;" parent="1" source="66" target="62" edge="1">
                    <mxGeometry relative="1" as="geometry"/>
                </mxCell>
                <mxCell id="74" style="edgeStyle=none;html=1;exitX=0;exitY=0;exitDx=140;exitDy=42;exitPerimeter=0;entryX=0;entryY=0;entryDx=0;entryDy=42;entryPerimeter=0;dashed=1;strokeColor=#000000;fontSize=18;endArrow=open;endFill=0;" parent="1" source="66" target="48" edge="1">
                    <mxGeometry relative="1" as="geometry"/>
                </mxCell>
                <mxCell id="66" value="&lt;font style=&quot;font-size: 16px;&quot;&gt;Mapper&lt;br&gt;&lt;/font&gt;" style="shape=folder;fontStyle=1;spacingTop=10;tabWidth=40;tabHeight=14;tabPosition=left;html=1;fillColor=#F2DBC0;fontColor=#000000;strokeColor=#000000;" parent="1" vertex="1">
                    <mxGeometry x="620" y="330" width="140" height="70" as="geometry"/>
                </mxCell>
                <mxCell id="72" style="edgeStyle=none;html=1;exitX=0;exitY=0;exitDx=140;exitDy=42;exitPerimeter=0;entryX=0;entryY=0;entryDx=90;entryDy=14;entryPerimeter=0;dashed=1;strokeColor=#000000;fontSize=18;endArrow=open;endFill=0;" parent="1" source="67" target="66" edge="1">
                    <mxGeometry relative="1" as="geometry">
                        <Array as="points">
                            <mxPoint x="710" y="272"/>
                        </Array>
                    </mxGeometry>
                </mxCell>
                <mxCell id="67" value="&lt;font style=&quot;font-size: 16px;&quot;&gt;Repository&lt;br&gt;&lt;/font&gt;" style="shape=folder;fontStyle=1;spacingTop=10;tabWidth=40;tabHeight=14;tabPosition=left;html=1;fillColor=#F2DBC0;fontColor=#000000;strokeColor=#000000;" parent="1" vertex="1">
                    <mxGeometry x="380" y="230" width="140" height="70" as="geometry"/>
                </mxCell>
                <mxCell id="70" style="edgeStyle=none;html=1;exitX=0;exitY=0;exitDx=140;exitDy=42;exitPerimeter=0;entryX=0;entryY=0;entryDx=0;entryDy=42;entryPerimeter=0;fontSize=18;strokeColor=#000000;dashed=1;endArrow=open;endFill=0;" parent="1" source="68" target="67" edge="1">
                    <mxGeometry relative="1" as="geometry"/>
                </mxCell>
                <mxCell id="68" value="&lt;font style=&quot;font-size: 16px;&quot;&gt;IRepository&lt;br&gt;&lt;/font&gt;" style="shape=folder;fontStyle=1;spacingTop=10;tabWidth=40;tabHeight=14;tabPosition=left;html=1;fillColor=#F2DBC0;fontColor=#000000;strokeColor=#000000;" parent="1" vertex="1">
                    <mxGeometry x="180" y="230" width="140" height="70" as="geometry"/>
                </mxCell>
                <mxCell id="80" value="&lt;font style=&quot;font-size: 18px;&quot;&gt;Web SPA&lt;br&gt;&lt;br&gt;&lt;br&gt;&lt;br&gt;&lt;br&gt;&lt;br&gt;&lt;br&gt;&lt;br&gt;&lt;br&gt;&lt;br&gt;&lt;br&gt;&lt;br&gt;&lt;br&gt;&lt;br&gt;&lt;br&gt;&lt;br&gt;&lt;/font&gt;" style="shape=folder;fontStyle=1;tabWidth=80;tabHeight=30;tabPosition=left;html=1;boundedLbl=1;strokeColor=#000000;fillColor=#faf5e3;fontColor=#000000;" parent="1" vertex="1">
                    <mxGeometry x="150" y="660" width="950" height="460" as="geometry"/>
                </mxCell>
                <mxCell id="89" style="edgeStyle=none;html=1;exitX=0;exitY=0;exitDx=90;exitDy=14;exitPerimeter=0;entryX=0.75;entryY=1;entryDx=0;entryDy=0;entryPerimeter=0;dashed=1;strokeColor=#000000;fontSize=18;endArrow=open;endFill=0;" parent="1" source="81" target="65" edge="1">
                    <mxGeometry relative="1" as="geometry"/>
                </mxCell>
                <mxCell id="81" value="&lt;font style=&quot;font-size: 16px;&quot;&gt;Services&lt;br&gt;&lt;/font&gt;" style="shape=folder;fontStyle=1;spacingTop=10;tabWidth=40;tabHeight=14;tabPosition=left;html=1;fillColor=#F2DBC0;fontColor=#000000;strokeColor=#000000;" parent="1" vertex="1">
                    <mxGeometry x="190" y="790" width="140" height="70" as="geometry"/>
                </mxCell>
                <mxCell id="82" value="&lt;font style=&quot;font-size: 16px;&quot;&gt;Pages&lt;br&gt;&lt;br&gt;&lt;br&gt;&lt;br&gt;&lt;br&gt;&lt;br&gt;&lt;br&gt;&lt;br&gt;&lt;/font&gt;" style="shape=folder;fontStyle=1;spacingTop=10;tabWidth=40;tabHeight=14;tabPosition=left;html=1;fillColor=#F2DBC0;fontColor=#000000;strokeColor=#000000;" parent="1" vertex="1">
                    <mxGeometry x="500" y="790" width="550" height="250" as="geometry"/>
                </mxCell>
                <mxCell id="87" style="edgeStyle=none;html=1;exitX=0;exitY=0;exitDx=140;exitDy=42;exitPerimeter=0;entryX=0;entryY=0;entryDx=0;entryDy=42;entryPerimeter=0;dashed=1;strokeColor=#000000;fontSize=18;endArrow=open;endFill=0;" parent="1" source="83" target="85" edge="1">
                    <mxGeometry relative="1" as="geometry"/>
                </mxCell>
                <mxCell id="88" style="edgeStyle=none;html=1;exitX=0;exitY=0;exitDx=0;exitDy=42;exitPerimeter=0;entryX=0.5;entryY=1;entryDx=0;entryDy=0;entryPerimeter=0;dashed=1;strokeColor=#000000;fontSize=18;endArrow=open;endFill=0;" parent="1" source="83" target="81" edge="1">
                    <mxGeometry relative="1" as="geometry">
                        <Array as="points">
                            <mxPoint x="260" y="955"/>
                        </Array>
                    </mxGeometry>
                </mxCell>
                <mxCell id="83" value="&lt;font style=&quot;font-size: 16px;&quot;&gt;Components&lt;br&gt;&lt;/font&gt;" style="shape=folder;fontStyle=1;spacingTop=10;tabWidth=40;tabHeight=14;tabPosition=left;html=1;fillColor=#FFCCCC;fontColor=#000000;strokeColor=#000000;" parent="1" vertex="1">
                    <mxGeometry x="570" y="920" width="140" height="70" as="geometry"/>
                </mxCell>
                <mxCell id="85" value="&lt;font style=&quot;font-size: 16px;&quot;&gt;Model&lt;br&gt;&lt;/font&gt;" style="shape=folder;fontStyle=1;spacingTop=10;tabWidth=40;tabHeight=14;tabPosition=left;html=1;fillColor=#FFCCCC;fontColor=#000000;strokeColor=#000000;" parent="1" vertex="1">
                    <mxGeometry x="840" y="920" width="140" height="70" as="geometry"/>
                </mxCell>
                <mxCell id="186" style="edgeStyle=none;html=1;exitX=1;exitY=0.5;exitDx=0;exitDy=0;entryX=0.75;entryY=1;entryDx=0;entryDy=0;dashed=1;strokeColor=#000000;endArrow=open;endFill=0;" edge="1" parent="1" source="94" target="117">
                    <mxGeometry relative="1" as="geometry">
                        <Array as="points">
                            <mxPoint x="-74" y="1009"/>
                        </Array>
                    </mxGeometry>
                </mxCell>
                <mxCell id="94" value="IRepository" style="html=1;dropTarget=0;fillColor=#f2dbc0;strokeColor=#000000;fontColor=#000000;align=center;" vertex="1" parent="1">
                    <mxGeometry x="-371" y="984" width="130" height="50" as="geometry"/>
                </mxCell>
                <mxCell id="95" value="" style="shape=module;jettyWidth=8;jettyHeight=4;fillColor=#f2dbc0;strokeColor=#000000;" vertex="1" parent="94">
                    <mxGeometry x="1" width="20" height="20" relative="1" as="geometry">
                        <mxPoint x="-27" y="7" as="offset"/>
                    </mxGeometry>
                </mxCell>
                <mxCell id="181" style="edgeStyle=none;html=1;exitX=0;exitY=0.5;exitDx=0;exitDy=0;entryX=1;entryY=0.5;entryDx=0;entryDy=0;dashed=1;strokeColor=#000000;endArrow=open;endFill=0;" edge="1" parent="1" source="98" target="112">
                    <mxGeometry relative="1" as="geometry"/>
                </mxCell>
                <mxCell id="185" style="edgeStyle=none;html=1;exitX=1;exitY=0.5;exitDx=0;exitDy=0;entryX=0.5;entryY=1;entryDx=0;entryDy=0;dashed=1;strokeColor=#000000;endArrow=open;endFill=0;" edge="1" parent="1" source="98" target="117">
                    <mxGeometry relative="1" as="geometry">
                        <Array as="points">
                            <mxPoint x="-109" y="914"/>
                        </Array>
                    </mxGeometry>
                </mxCell>
                <mxCell id="98" value="Repository" style="html=1;dropTarget=0;fillColor=#f2dbc0;strokeColor=#000000;fontColor=#000000;" vertex="1" parent="1">
                    <mxGeometry x="-366" y="889" width="120" height="50" as="geometry"/>
                </mxCell>
                <mxCell id="99" value="" style="shape=module;jettyWidth=8;jettyHeight=4;fillColor=#f2dbc0;strokeColor=#000000;" vertex="1" parent="98">
                    <mxGeometry x="1" width="20" height="20" relative="1" as="geometry">
                        <mxPoint x="-27" y="7" as="offset"/>
                    </mxGeometry>
                </mxCell>
                <mxCell id="177" style="edgeStyle=none;html=1;exitX=0;exitY=0.5;exitDx=0;exitDy=0;entryX=0.25;entryY=1;entryDx=0;entryDy=0;dashed=1;strokeColor=#000000;endArrow=open;endFill=0;" edge="1" parent="1" source="102" target="107">
                    <mxGeometry relative="1" as="geometry">
                        <Array as="points">
                            <mxPoint x="-529" y="819"/>
                        </Array>
                    </mxGeometry>
                </mxCell>
                <mxCell id="184" style="edgeStyle=none;html=1;exitX=1;exitY=0.5;exitDx=0;exitDy=0;entryX=0.25;entryY=1;entryDx=0;entryDy=0;dashed=1;strokeColor=#000000;endArrow=open;endFill=0;" edge="1" parent="1" source="102" target="117">
                    <mxGeometry relative="1" as="geometry">
                        <Array as="points">
                            <mxPoint x="-144" y="819"/>
                        </Array>
                    </mxGeometry>
                </mxCell>
                <mxCell id="102" value="Mapper" style="html=1;dropTarget=0;fillColor=#f2dbc0;strokeColor=#000000;fontColor=#000000;" vertex="1" parent="1">
                    <mxGeometry x="-366" y="794" width="120" height="50" as="geometry"/>
                </mxCell>
                <mxCell id="103" value="" style="shape=module;jettyWidth=8;jettyHeight=4;fillColor=#f2dbc0;strokeColor=#000000;" vertex="1" parent="102">
                    <mxGeometry x="1" width="20" height="20" relative="1" as="geometry">
                        <mxPoint x="-27" y="7" as="offset"/>
                    </mxGeometry>
                </mxCell>
                <mxCell id="107" value="DTO" style="html=1;dropTarget=0;fillColor=#f2dbc0;strokeColor=#000000;fontColor=#000000;" vertex="1" parent="1">
                    <mxGeometry x="-559" y="503" width="120" height="50" as="geometry"/>
                </mxCell>
                <mxCell id="108" value="" style="shape=module;jettyWidth=8;jettyHeight=4;fillColor=#f2dbc0;strokeColor=#000000;" vertex="1" parent="107">
                    <mxGeometry x="1" width="20" height="20" relative="1" as="geometry">
                        <mxPoint x="-27" y="7" as="offset"/>
                    </mxGeometry>
                </mxCell>
                <mxCell id="112" value="DataSchema" style="html=1;dropTarget=0;fillColor=#f2dbc0;strokeColor=#000000;fontColor=#000000;" vertex="1" parent="1">
                    <mxGeometry x="-729" y="889" width="140" height="50" as="geometry"/>
                </mxCell>
                <mxCell id="113" value="" style="shape=module;jettyWidth=8;jettyHeight=4;fillColor=#f2dbc0;strokeColor=#000000;" vertex="1" parent="112">
                    <mxGeometry x="1" width="20" height="20" relative="1" as="geometry">
                        <mxPoint x="-27" y="7" as="offset"/>
                    </mxGeometry>
                </mxCell>
                <mxCell id="117" value="DomainModel" style="html=1;dropTarget=0;fillColor=#f2dbc0;strokeColor=#000000;fontColor=#000000;" vertex="1" parent="1">
                    <mxGeometry x="-179" y="693" width="140" height="50" as="geometry"/>
                </mxCell>
                <mxCell id="118" value="" style="shape=module;jettyWidth=8;jettyHeight=4;fillColor=#f2dbc0;strokeColor=#000000;" vertex="1" parent="117">
                    <mxGeometry x="1" width="20" height="20" relative="1" as="geometry">
                        <mxPoint x="-27" y="7" as="offset"/>
                    </mxGeometry>
                </mxCell>
                <mxCell id="178" style="edgeStyle=none;html=1;exitX=0.5;exitY=0;exitDx=0;exitDy=0;entryX=0.5;entryY=1;entryDx=0;entryDy=0;dashed=1;strokeColor=#000000;endArrow=open;endFill=0;" edge="1" parent="1" source="123" target="140">
                    <mxGeometry relative="1" as="geometry"/>
                </mxCell>
                <mxCell id="179" style="edgeStyle=none;html=1;exitX=1;exitY=0.5;exitDx=0;exitDy=0;entryX=0;entryY=0.5;entryDx=0;entryDy=0;dashed=1;strokeColor=#000000;endArrow=open;endFill=0;" edge="1" parent="1" source="123" target="117">
                    <mxGeometry relative="1" as="geometry"/>
                </mxCell>
                <mxCell id="180" style="edgeStyle=none;html=1;exitX=0.5;exitY=1;exitDx=0;exitDy=0;entryX=0.5;entryY=0;entryDx=0;entryDy=0;dashed=1;strokeColor=#000000;endArrow=open;endFill=0;" edge="1" parent="1" source="123" target="102">
                    <mxGeometry relative="1" as="geometry"/>
                </mxCell>
                <mxCell id="183" style="edgeStyle=none;html=1;exitX=0;exitY=0.5;exitDx=0;exitDy=0;entryX=0;entryY=0.5;entryDx=0;entryDy=0;dashed=1;strokeColor=#000000;endArrow=open;endFill=0;" edge="1" parent="1" source="123" target="94">
                    <mxGeometry relative="1" as="geometry">
                        <Array as="points">
                            <mxPoint x="-484" y="718"/>
                            <mxPoint x="-484" y="865"/>
                            <mxPoint x="-484" y="1009"/>
                        </Array>
                    </mxGeometry>
                </mxCell>
                <mxCell id="123" value="Service" style="html=1;dropTarget=0;fillColor=#f2dbc0;strokeColor=#000000;fontColor=#000000;" vertex="1" parent="1">
                    <mxGeometry x="-366" y="693" width="120" height="50" as="geometry"/>
                </mxCell>
                <mxCell id="124" value="" style="shape=module;jettyWidth=8;jettyHeight=4;fillColor=#f2dbc0;strokeColor=#000000;" vertex="1" parent="123">
                    <mxGeometry x="1" width="20" height="20" relative="1" as="geometry">
                        <mxPoint x="-27" y="7" as="offset"/>
                    </mxGeometry>
                </mxCell>
                <mxCell id="170" style="edgeStyle=none;html=1;exitX=0;exitY=0.5;exitDx=0;exitDy=0;entryX=1;entryY=0.5;entryDx=0;entryDy=0;dashed=1;strokeColor=#000000;endArrow=open;endFill=0;" edge="1" parent="1" source="127" target="107">
                    <mxGeometry relative="1" as="geometry"/>
                </mxCell>
                <mxCell id="171" style="edgeStyle=none;html=1;exitX=1;exitY=0.5;exitDx=0;exitDy=0;entryX=0;entryY=0.5;entryDx=0;entryDy=0;dashed=1;strokeColor=#000000;endArrow=open;endFill=0;" edge="1" parent="1" source="127" target="129">
                    <mxGeometry relative="1" as="geometry"/>
                </mxCell>
                <mxCell id="174" style="edgeStyle=none;html=1;exitX=0.5;exitY=1;exitDx=0;exitDy=0;entryX=0.5;entryY=0;entryDx=0;entryDy=0;dashed=1;strokeColor=#000000;endArrow=open;endFill=0;" edge="1" parent="1" source="127" target="140">
                    <mxGeometry relative="1" as="geometry"/>
                </mxCell>
                <mxCell id="127" value="Controller" style="html=1;dropTarget=0;fillColor=#f2dbc0;strokeColor=#000000;fontColor=#000000;" vertex="1" parent="1">
                    <mxGeometry x="-366" y="503" width="120" height="50" as="geometry"/>
                </mxCell>
                <mxCell id="128" value="" style="shape=module;jettyWidth=8;jettyHeight=4;fillColor=#f2dbc0;strokeColor=#000000;" vertex="1" parent="127">
                    <mxGeometry x="1" width="20" height="20" relative="1" as="geometry">
                        <mxPoint x="-27" y="7" as="offset"/>
                    </mxGeometry>
                </mxCell>
                <mxCell id="129" value="IController" style="html=1;dropTarget=0;fillColor=#f2dbc0;strokeColor=#000000;fontColor=#000000;" vertex="1" parent="1">
                    <mxGeometry x="-179" y="503" width="120" height="50" as="geometry"/>
                </mxCell>
                <mxCell id="130" value="" style="shape=module;jettyWidth=8;jettyHeight=4;fillColor=#f2dbc0;strokeColor=#000000;" vertex="1" parent="129">
                    <mxGeometry x="1" width="20" height="20" relative="1" as="geometry">
                        <mxPoint x="-27" y="7" as="offset"/>
                    </mxGeometry>
                </mxCell>
                <mxCell id="173" style="edgeStyle=none;html=1;exitX=0.5;exitY=0;exitDx=0;exitDy=0;entryX=0.5;entryY=1;entryDx=0;entryDy=0;dashed=1;strokeColor=#000000;endArrow=open;endFill=0;" edge="1" parent="1" source="131" target="129">
                    <mxGeometry relative="1" as="geometry"/>
                </mxCell>
                <mxCell id="131" value="Route" style="html=1;dropTarget=0;fillColor=#f2dbc0;strokeColor=#000000;fontColor=#000000;" vertex="1" parent="1">
                    <mxGeometry x="-179" y="600" width="120" height="50" as="geometry"/>
                </mxCell>
                <mxCell id="132" value="" style="shape=module;jettyWidth=8;jettyHeight=4;fillColor=#f2dbc0;strokeColor=#000000;" vertex="1" parent="131">
                    <mxGeometry x="1" width="20" height="20" relative="1" as="geometry">
                        <mxPoint x="-27" y="7" as="offset"/>
                    </mxGeometry>
                </mxCell>
                <mxCell id="175" style="edgeStyle=none;html=1;exitX=0;exitY=0.75;exitDx=0;exitDy=0;entryX=0.5;entryY=1;entryDx=0;entryDy=0;dashed=1;strokeColor=#000000;endArrow=open;endFill=0;" edge="1" parent="1" source="140" target="107">
                    <mxGeometry relative="1" as="geometry">
                        <Array as="points">
                            <mxPoint x="-499" y="638"/>
                        </Array>
                    </mxGeometry>
                </mxCell>
                <mxCell id="176" style="edgeStyle=none;html=1;exitX=0;exitY=0.25;exitDx=0;exitDy=0;entryX=0.75;entryY=1;entryDx=0;entryDy=0;dashed=1;strokeColor=#000000;endArrow=open;endFill=0;" edge="1" parent="1" source="140" target="107">
                    <mxGeometry relative="1" as="geometry">
                        <Array as="points">
                            <mxPoint x="-469" y="613"/>
                        </Array>
                    </mxGeometry>
                </mxCell>
                <mxCell id="140" value="IService" style="html=1;dropTarget=0;fillColor=#f2dbc0;strokeColor=#000000;fontColor=#000000;" vertex="1" parent="1">
                    <mxGeometry x="-366" y="600" width="120" height="50" as="geometry"/>
                </mxCell>
                <mxCell id="141" value="" style="shape=module;jettyWidth=8;jettyHeight=4;fillColor=#f2dbc0;strokeColor=#000000;" vertex="1" parent="140">
                    <mxGeometry x="1" width="20" height="20" relative="1" as="geometry">
                        <mxPoint x="-27" y="7" as="offset"/>
                    </mxGeometry>
                </mxCell>
                <mxCell id="182" style="edgeStyle=none;html=1;exitX=0.5;exitY=0;exitDx=0;exitDy=0;entryX=0.5;entryY=1;entryDx=0;entryDy=0;dashed=1;strokeColor=#000000;endArrow=open;endFill=0;" edge="1" parent="1" source="162" target="112">
                    <mxGeometry relative="1" as="geometry"/>
                </mxCell>
                <mxCell id="162" value="Persistence / &lt;br&gt;Schema" style="html=1;dropTarget=0;fillColor=#f2dbc0;strokeColor=#000000;fontColor=#000000;" vertex="1" parent="1">
                    <mxGeometry x="-729" y="984" width="140" height="50" as="geometry"/>
                </mxCell>
                <mxCell id="163" value="" style="shape=module;jettyWidth=8;jettyHeight=4;fillColor=#f2dbc0;strokeColor=#000000;" vertex="1" parent="162">
                    <mxGeometry x="1" width="20" height="20" relative="1" as="geometry">
                        <mxPoint x="-27" y="7" as="offset"/>
                    </mxGeometry>
                </mxCell>
                <mxCell id="187" value="" style="whiteSpace=wrap;html=1;strokeColor=none;fontColor=#000000;fillColor=none;" vertex="1" parent="1">
                    <mxGeometry x="-860" y="78" width="2025" height="1098" as="geometry"/>
                </mxCell>
            </root>
        </mxGraphModel>
    </diagram>
</mxfile>